/* XPM */
static char * icon_xpm[] = {
"48 48 3 1",
" 	c None",
".	c #87D7FF",
"+	c #000000",
"................................................",
"................................................",
"..++++++++++++++++++++++++++++++++++++++++++++..",
"..++++++++++++++++++++++++++++++++++++++++++++..",
"..++++++++++++++++++++++++++++++++++++++++++++..",
"..++++++++++++++++++++++++++++++++++++++++++++..",
"..++++++++++++++++++++++++++++++++++++++++++++..",
"..++++++++++++++++++++++++++++++++++++++++++++..",
"..++++++++++++++++++++++++++++++++++++++++++++..",
"..++++++++++++++++++++++++++++++++++++++++++++..",
"..++++++++++++++++++++++++++++++++++++++++++++..",
"..++++++++++++++++++++++++++++++++++++++++++++..",
"..++++++++++++++++++++++++++++++++++++++++++++..",
"..++++++++++++++++++++++++++++++++++++++++++++..",
"..++++++++++++++++++++++++++++++++++++++++++++..",
"..++++++++++++++++++++++++++++++++++++++++++++..",
"..+++++++++..........................+++++++++..",
"..+++++++++..........................+++++++++..",
"..++++++++++++++++++++++++++++++++++++++++++++..",
"..++++++++++++++++++++++++++++++++++++++++++++..",
"..++++++++++.......++......++..++++..+++++++++..",
"..+++++++++........+........+..++++..+++++++++..",
"..+++++++++..+++++++..++++..+..++++..+++++++++..",
"..+++++++++..++....+........+..++++..+++++++++..",
"..+++++++++..++....+.......++..++++..+++++++++..",
"..+++++++++..++++..+..+++++++..++++..+++++++++..",
"..+++++++++........+..+++++++........+++++++++..",
"..++++++++++.......+..++++++++......++++++++++..",
"..++++++++++++++++++++++++++++++++++++++++++++..",
"..++++++++++++++++++++++++++++++++++++++++++++..",
"..+++++++++..........................+++++++++..",
"..+++++++++..........................+++++++++..",
"..++++++++++++++++++++++++++++++++++++++++++++..",
"..++++++++++++++++++++++++++++++++++++++++++++..",
"..++++++++++++++++++++++++++++++++++++++++++++..",
"..++++++++++++++++++++++++++++++++++++++++++++..",
"..++++++++++++++++++++++++++++++++++++++++++++..",
"..++++++++++++++++++++++++++++++++++++++++++++..",
"..++++++++++++++++++++++++++++++++++++++++++++..",
"..++++++++++++++++++++++++++++++++++++++++++++..",
"..++++++++++++++++++++++++++++++++++++++++++++..",
"..++++++++++++++++++++++++++++++++++++++++++++..",
"..++++++++++++++++++++++++++++++++++++++++++++..",
"..++++++++++++++++++++++++++++++++++++++++++++..",
"..++++++++++++++++++++++++++++++++++++++++++++..",
"..++++++++++++++++++++++++++++++++++++++++++++..",
"................................................",
"................................................"};
