/* XPM */
static char * pixmap_xpm[] = {
"128 64 4 1",
" 	c None",
".	c #87D7FF s On",
"+	c #000000 s Background",
"@	c #0095E0 s Off",
"                                                                ................................................................",
"                                                                .++++++++++++++++++++++++++++++++++++++++++++++++++++++++++++++.",
"  @@@@@@@@@@@@@@@@@@@@@@@@@@@@@@@@@@@@@@@@@@@@@@@@@@@@@@@@@@@@  .++++++++++++++++++++++++++++++++++++++++++++++++++++++++++++++.",
"  @++++++++++++++++++++++++++++++++++++++++++++++++++++++++++@  .++++++++++++++++++++++++++++++++++++++++++++++++++++++++++++++.",
"  @++++++++++++++++++++++++++++++++++++++++++++++++++++++++++@  .++++++++++++++++++++++++++++++++++++++++++++++++++++++++++++++.",
"  @++++++++++++@@++++++++++++++++++++++++++++++++++++++++++++@  .++++++++++++++++++++++++++++++++++++++++++++++++++++++++++++++.",
"  @++++++++++++@@++++++++++++++++++++++++++++++++++++++++++++@  .++++++++++++++++++++++++++++++++++++++++++++++++++++++++++++++.",
"  @++++++++++++@@++++++++++++++++++++++++++++++++++++++++++++@  .++++++++++++++++++++++++++++++++++++++++++++++++++++++++++++++.",
"  @++++++++++++@@++++++++++++++++++++++++++++++++++++++++++++@  .++++++++++++++++++++++++++++++++++++++++++++++++++++++++++++++.",
"  @++++++++++++@@++++++++++++++++++++++++++++++++++++++++++++@  .++++++++++++++++++++++++++++++++++++++++++++++++++++++++++++++.",
"  @++++++++++++@@++++++++++++++++++++++++++++++++++++++++++++@  .++++++++++++++++++++++++++++++++++++++++++++++++++++++++++++++.",
"  @++++++++++++@@++++++++++++++++++++++++++++++++++++++++++++@  .++++++++++++++++++++++++++++++++++++++++++++++++++++++++++++++.",
"  @++++++++++++@@++++++++++++++++++++++++++++++++++++++++++++@  .++++++++++++++++++++++++++++++++++++++++++++++++++++++++++++++.",
"  @++++++++++++@@++++++++++++++++++++++++++++++++++++++++++++@  .++++++++++++++++++++++++++++++++++++++++++++++++++++++++++++++.",
"  @++++++++++++@@++++++++++++++++++++++++++++++++++++++++++++@  .++++++++++++++++++++++++++++++++++++++++++++++++++++++++++++++.",
"  @++++++++++++@@++++++++++++++++++++++++++++++++++++++++++++@  .++++++++++++++++++++++++++++++++++++++++++++++++++++++++++++++.",
"  @++++++++++++@@++++++++++++++++++++++++++++++++++++++++++++@  .++++++++++++++++++++++++++++++++++++++++++++++++++++++++++++++.",
"  @++++++++++++@@++++++++++++++++++++++++++++++++++++++++++++@  .++++++++++++++++++++++++++++++++++++++++++++++++++++++++++++++.",
"  @++++++++++++@@++++++++++++++++++++++++++++++++++++++++++++@  .++++++++++++++++++++++++++++++++++++++++++++++++++++++++++++++.",
"  @++.......+++@@++++++++++++++++++++++++++++++++++++++++++++@  .++++++++++++++++++++++++++++++++++++++++++++++++++++++++++++++.",
"  @++........++@@++++++++++++++++++++++++++++++++++++++++++++@  .++++++++++++++++++++++++++++++++++++++++++++++++++++++++++++++.",
"  @++++++++..++@@++++++++++++++++++++++++++++++++++++++++++++@  .++++++++++++++++++++++++++++++++++++++++++++++++++++++++++++++.",
"  @++++++++..++@@++++++++++++++++++++++++++++++++++++++++++++@  .++++++++++++++++++++++++++++++++++++++++++++++++++++++++++++++.",
"  @++++++++..++@@++++++++++++++++++++++++++++++++++++++++++++@  .++++++++++++++++++++++++++++++++++++++++++++++++++++++++++++++.",
"  @++++++++..++@@++++++++++++++++++++++++++++++++++++++++++++@  .++++++++++++++++++++++++++++++++++++++++++++++++++++++++++++++.",
"  @++........++@@++++++++++++++++++++++++++++++++++++++++++++@  .++++++++++++++++++++++++++++++++++++++++++++++++++++++++++++++.",
"  @++.......+++@@++++++++++++++++++++++++++++++++++++++++++++@  .++++++++++++++++++++++++++++++++++++++++++++++++++++++++++++++.",
"  @++++++++++++@@++++++++++++++++++++++++++++++++++++++++++++@  .++++++++++++++++++++++++++++++++++++++++++++++++++++++++++++++.",
"  @+++...++++++@@++++++++++++++++++++++++++++++++++++++++++++@  .++++++++++++++++++++++++++++++++++++++++++++++++++++++++++++++.",
"  @++.....+++++@@++++++++++++++++++++++++++++++++++++++++++++@  .++++++++++++++++++++++++++++++++++++++++++++++++++++++++++++++.",
"  @++..+..+++++@@++++++++++++++++++++++++++++++++++++++++++++@  .++++++++++++++++++++++++++++++++++++++++++++++++++++++++++++++.",
"  @++..+..+++++@@++++++++++++++++++++++++++++++++++++++++++++@  .++++++++++++++++++++++++++++++++++++++++++++++++++++++++++++++.",
"  @++..+..+++++@@++++++++++++++++++++++++++++++++++++++++++++@  .++++++++++++++++++++++++++++++++++++++++++++++++++++++++++++++.",
"  @++..+..+++++@@++++++++++++++++++++++++++++++++++++++++++++@  .++++++++++++++++++++++++++++++++++++++++++++++++++++++++++++++.",
"  @++........++@@++++++++++++++++++++++++++++++++++++++++++++@  .++++++++++++++++++++++++++++++++++++++++++++++++++++++++++++++.",
"  @+++.......++@@++++++++++++++++++++++++++++++++++++++++++++@  .++++++++++++++++++++++++++++++++++++++++++++++++++++++++++++++.",
"  @++++++++++++@@++++++++++++++++++++++++++++++++++++++++++++@  .++++++++++++++++++++++++++++++++++++++++++++++++++++++++++++++.",
"  @++..+....+++@@++++++++++++++++++++++++++++++++++++++++++++@  .++++++++++++++++++++++++++++++++++++++++++++++++++++++++++++++.",
"  @++..+.....++@@++++++++++++++++++++++++++++++++++++++++++++@  .++++++++++++++++++++++++++++++++++++++++++++++++++++++++++++++.",
"  @++..+..+..++@@++++++++++++++++++++++++++++++++++++++++++++@  .++++++++++++++++++++++++++++++++++++++++++++++++++++++++++++++.",
"  @++..+..+..++@@++++++++++++++++++++++++++++++++++++++++++++@  .++++++++++++++++++++++++++++++++++++++++++++++++++++++++++++++.",
"  @++..++++..++@@++++++++++++++++++++++++++++++++++++++++++++@  .++++++++++++++++++++++++++++++++++++++++++++++++++++++++++++++.",
"  @++..++++..++@@++++++++++++++++++++++++++++++++++++++++++++@  .++++++++++++++++++++++++++++++++++++++++++++++++++++++++++++++.",
"  @++........++@@++++++++++++++++++++++++++++++++++++++++++++@  .++++++++++++++++++++++++++++++++++++++++++++++++++++++++++++++.",
"  @+++......+++@@++++++++++++++++++++++++++++++++++++++++++++@  .++++++++++++++++++++++++++++++++++++++++++++++++++++++++++++++.",
"  @++++++++++++@@++++++++++++++++++++++++++++++++++++++++++++@  .++++++++++++++++++++++++++++++++++++++++++++++++++++++++++++++.",
"  @++++++++++++@@++++++++++++++++++++++++++++++++++++++++++++@  .++++++++++++++++++++++++++++++++++++++++++++++++++++++++++++++.",
"  @++++++++++++@@++++++++++++++++++++++++++++++++++++++++++++@  .++++++++++++++++++++++++++++++++++++++++++++++++++++++++++++++.",
"  @++++++++++++@@++++++++++++++++++++++++++++++++++++++++++++@  .++++++++++++++++++++++++++++++++++++++++++++++++++++++++++++++.",
"  @++++++++++++@@++++++++++++++++++++++++++++++++++++++++++++@  .++++++++++++++++++++++++++++++++++++++++++++++++++++++++++++++.",
"  @++++++++++++@@++++++++++++++++++++++++++++++++++++++++++++@  .++++++++++++++++++++++++++++++++++++++++++++++++++++++++++++++.",
"  @++++++++++++@@++++++++++++++++++++++++++++++++++++++++++++@  .++++++++++++++++++++++++++++++++++++++++++++++++++++++++++++++.",
"  @++++++++++++@@++++++++++++++++++++++++++++++++++++++++++++@  .++++++++++++++++++++++++++++++++++++++++++++++++++++++++++++++.",
"  @++++++++++++@@++++++++++++++++++++++++++++++++++++++++++++@  .++++++++++++++++++++++++++++++++++++++++++++++++++++++++++++++.",
"  @++++++++++++@@++++++++++++++++++++++++++++++++++++++++++++@  .++++++++++++++++++++++++++++++++++++++++++++++++++++++++++++++.",
"  @++++++++++++@@++++++++++++++++++++++++++++++++++++++++++++@  .++++++++++++++++++++++++++++++++++++++++++++++++++++++++++++++.",
"  @++++++++++++@@++++++++++++++++++++++++++++++++++++++++++++@  .++++++++++++++++++++++++++++++++++++++++++++++++++++++++++++++.",
"  @++++++++++++@@++++++++++++++++++++++++++++++++++++++++++++@  .++++++++++++++++++++++++++++++++++++++++++++++++++++++++++++++.",
"  @++++++++++++@@++++++++++++++++++++++++++++++++++++++++++++@  .++++++++++++++++++++++++++++++++++++++++++++++++++++++++++++++.",
"  @++++++++++++++++++++++++++++++++++++++++++++++++++++++++++@  .++++++++++++++++++++++++++++++++++++++++++++++++++++++++++++++.",
"  @++++++++++++++++++++++++++++++++++++++++++++++++++++++++++@  .++++++++++++++++++++++++++++++++++++++++++++++++++++++++++++++.",
"  @@@@@@@@@@@@@@@@@@@@@@@@@@@@@@@@@@@@@@@@@@@@@@@@@@@@@@@@@@@@  .++++++++++++++++++++++++++++++++++++++++++++++++++++++++++++++.",
"                                                                .++++++++++++++++++++++++++++++++++++++++++++++++++++++++++++++.",
"                                                                ................................................................"};
